# xmcd
#
# Track frame offsets:
#	150
#	27881
#	48905
#	72201
#	95998
#	117013
#	145745
#	161264
#	181207
#	202299
#	217344
#	233726
#
# Disc length: 3281 seconds
#
# Revision: 0
# Processed by: cddbd v1.4PL0 Copyright (c) Steve Scherf et al.
# Submitted via: dBpowerAMP V4.0
#
DISCID=ad0ccf0c
DTITLE=Lambchop - What Another Man Spills
DYEAR=1998
DGENRE=Country
TTITLE0=Interrupted
TTITLE1=The Saturday Option
TTITLE2=Shucks
TTITLE3=Give Me Your Love (Love Song)
TTITLE4=Life #2
TTITLE5=Scamper
TTITLE6=It's Not Alright
TTITLE7=N.O.
TTITLE8=I've Been Lonely For So Long
TTITLE9=Magnificent Obsession
TTITLE10=King Of Nothing Never
TTITLE11=The Theme From The Neil Miller Show
EXTD=
EXTT0=
EXTT1=
EXTT2=
EXTT3=
EXTT4=
EXTT5=
EXTT6=
EXTT7=
EXTT8=
EXTT9=
EXTT10=
EXTT11=
PLAYORDER=
